<?xml version="1.0" encoding="UTF-8" standalone="no"?>
<!DOCTYPE svg PUBLIC "-//W3C//DTD SVG 1.1//EN"
 "http://www.w3.org/Graphics/SVG/1.1/DTD/svg11.dtd">
<!-- Generated by graphviz version 2.47.3 (20210619.1520)
 -->
<!-- Title: dependencies Pages: 1 -->
<svg width="218pt" height="247pt"
 viewBox="0.00 0.00 218.00 246.80" xmlns="http://www.w3.org/2000/svg" xmlns:xlink="http://www.w3.org/1999/xlink">
<g id="graph0" class="graph" transform="scale(1 1) rotate(0) translate(4 242.8)">
<title>dependencies</title>
<polygon fill="white" stroke="transparent" points="-4,4 -4,-242.8 214,-242.8 214,4 -4,4"/>
<text text-anchor="middle" x="105" y="-8.2" font-family="sans-serif" font-size="14.00">dependencies</text>
<g id="clust1" class="cluster">
<title>cluster_InteractionDirectivesModule</title>
<polygon fill="none" stroke="black" stroke-dasharray="1,5" points="8,-32.8 8,-230.8 202,-230.8 202,-32.8 8,-32.8"/>
</g>
<g id="clust2" class="cluster">
<title>cluster_InteractionDirectivesModule_declarations</title>
<polygon fill="none" stroke="black" points="33,-40.8 33,-92.8 177,-92.8 177,-40.8 33,-40.8"/>
</g>
<g id="clust5" class="cluster">
<title>cluster_InteractionDirectivesModule_exports</title>
<polygon fill="none" stroke="black" points="31,-170.8 31,-222.8 179,-222.8 179,-170.8 31,-170.8"/>
</g>
<!-- InteractionDirective -->
<g id="node1" class="node">
<title>InteractionDirective</title>
<polygon fill="#ffffb3" stroke="black" points="169.22,-84.8 40.78,-84.8 40.78,-48.8 169.22,-48.8 169.22,-84.8"/>
<text text-anchor="middle" x="105" y="-62.6" font-family="Times,serif" font-size="14.00">InteractionDirective</text>
</g>
<!-- InteractionDirectivesModule -->
<g id="node2" class="node">
<title>InteractionDirectivesModule</title>
<polygon fill="#8dd3c7" stroke="black" points="193.71,-149.8 190.71,-153.8 169.71,-153.8 166.71,-149.8 16.29,-149.8 16.29,-113.8 193.71,-113.8 193.71,-149.8"/>
<text text-anchor="middle" x="105" y="-127.6" font-family="Times,serif" font-size="14.00">InteractionDirectivesModule</text>
</g>
<!-- InteractionDirective&#45;&gt;InteractionDirectivesModule -->
<g id="edge1" class="edge">
<title>InteractionDirective&#45;&gt;InteractionDirectivesModule</title>
<path fill="none" stroke="black" d="M105,-84.91C105,-84.91 105,-103.79 105,-103.79"/>
<polygon fill="black" stroke="black" points="101.5,-103.79 105,-113.79 108.5,-103.79 101.5,-103.79"/>
</g>
<!-- InteractionDirective  -->
<g id="node3" class="node">
<title>InteractionDirective </title>
<polygon fill="#fb8072" stroke="black" points="171.22,-214.8 38.78,-214.8 38.78,-178.8 171.22,-178.8 171.22,-214.8"/>
<text text-anchor="middle" x="105" y="-192.6" font-family="Times,serif" font-size="14.00">InteractionDirective </text>
</g>
<!-- InteractionDirectivesModule&#45;&gt;InteractionDirective  -->
<g id="edge2" class="edge">
<title>InteractionDirectivesModule&#45;&gt;InteractionDirective </title>
<path fill="none" stroke="black" stroke-dasharray="5,2" d="M105,-149.91C105,-149.91 105,-168.79 105,-168.79"/>
<polygon fill="black" stroke="black" points="101.5,-168.79 105,-178.79 108.5,-168.79 101.5,-168.79"/>
</g>
</g>
</svg>
