<?xml version="1.0" encoding="UTF-8" standalone="no"?>
<!DOCTYPE svg PUBLIC "-//W3C//DTD SVG 1.1//EN"
 "http://www.w3.org/Graphics/SVG/1.1/DTD/svg11.dtd">
<!-- Generated by graphviz version 2.47.3 (20210619.1520)
 -->
<!-- Title: dependencies Pages: 1 -->
<svg width="524pt" height="174pt"
 viewBox="0.00 0.00 524.00 173.80" xmlns="http://www.w3.org/2000/svg" xmlns:xlink="http://www.w3.org/1999/xlink">
<g id="graph0" class="graph" transform="scale(1 1) rotate(0) translate(4 169.8)">
<title>dependencies</title>
<polygon fill="white" stroke="transparent" points="-4,4 -4,-169.8 520,-169.8 520,4 -4,4"/>
<text text-anchor="middle" x="258" y="-8.2" font-family="sans-serif" font-size="14.00">dependencies</text>
<g id="clust1" class="cluster">
<title>cluster_HttpModule</title>
<polygon fill="none" stroke="black" stroke-dasharray="1,5" points="8,-32.8 8,-157.8 508,-157.8 508,-32.8 8,-32.8"/>
</g>
<g id="clust6" class="cluster">
<title>cluster_HttpModule_providers</title>
<polygon fill="none" stroke="black" points="16,-40.8 16,-92.8 500,-92.8 500,-40.8 16,-40.8"/>
</g>
<!-- AuthJwtInterceptor -->
<g id="node1" class="node">
<title>AuthJwtInterceptor</title>
<ellipse fill="#fdb462" stroke="black" cx="406" cy="-66.8" rx="86.23" ry="18"/>
<text text-anchor="middle" x="406" y="-62.6" font-family="Times,serif" font-size="14.00">AuthJwtInterceptor</text>
</g>
<!-- HttpModule -->
<g id="node4" class="node">
<title>HttpModule</title>
<polygon fill="#8dd3c7" stroke="black" points="271.44,-149.8 268.44,-153.8 247.44,-153.8 244.44,-149.8 186.56,-149.8 186.56,-113.8 271.44,-113.8 271.44,-149.8"/>
<text text-anchor="middle" x="229" y="-127.6" font-family="Times,serif" font-size="14.00">HttpModule</text>
</g>
<!-- AuthJwtInterceptor&#45;&gt;HttpModule -->
<g id="edge1" class="edge">
<title>AuthJwtInterceptor&#45;&gt;HttpModule</title>
<path fill="none" stroke="black" d="M406,-84.91C406,-104.14 406,-131.8 406,-131.8 406,-131.8 281.4,-131.8 281.4,-131.8"/>
<polygon fill="black" stroke="black" points="281.4,-128.3 271.4,-131.8 281.4,-135.3 281.4,-128.3"/>
</g>
<!-- AuthJwtService -->
<g id="node2" class="node">
<title>AuthJwtService</title>
<ellipse fill="#fdb462" stroke="black" cx="229" cy="-66.8" rx="72.93" ry="18"/>
<text text-anchor="middle" x="229" y="-62.6" font-family="Times,serif" font-size="14.00">AuthJwtService</text>
</g>
<!-- AuthJwtService&#45;&gt;HttpModule -->
<g id="edge2" class="edge">
<title>AuthJwtService&#45;&gt;HttpModule</title>
<path fill="none" stroke="black" d="M229,-84.91C229,-84.91 229,-103.79 229,-103.79"/>
<polygon fill="black" stroke="black" points="225.5,-103.79 229,-113.79 232.5,-103.79 225.5,-103.79"/>
</g>
<!-- HttpService -->
<g id="node3" class="node">
<title>HttpService</title>
<ellipse fill="#fdb462" stroke="black" cx="81" cy="-66.8" rx="57.32" ry="18"/>
<text text-anchor="middle" x="81" y="-62.6" font-family="Times,serif" font-size="14.00">HttpService</text>
</g>
<!-- HttpService&#45;&gt;HttpModule -->
<g id="edge3" class="edge">
<title>HttpService&#45;&gt;HttpModule</title>
<path fill="none" stroke="black" d="M81,-84.91C81,-104.14 81,-131.8 81,-131.8 81,-131.8 176.59,-131.8 176.59,-131.8"/>
<polygon fill="black" stroke="black" points="176.59,-135.3 186.59,-131.8 176.59,-128.3 176.59,-135.3"/>
</g>
</g>
</svg>
