<?xml version="1.0" encoding="UTF-8" standalone="no"?>
<!DOCTYPE svg PUBLIC "-//W3C//DTD SVG 1.1//EN"
 "http://www.w3.org/Graphics/SVG/1.1/DTD/svg11.dtd">
<!-- Generated by graphviz version 2.47.3 (20210619.1520)
 -->
<!-- Title: dependencies Pages: 1 -->
<svg width="1023pt" height="247pt"
 viewBox="0.00 0.00 1023.00 246.80" xmlns="http://www.w3.org/2000/svg" xmlns:xlink="http://www.w3.org/1999/xlink">
<g id="graph0" class="graph" transform="scale(1 1) rotate(0) translate(4 242.8)">
<title>dependencies</title>
<polygon fill="white" stroke="transparent" points="-4,4 -4,-242.8 1019,-242.8 1019,4 -4,4"/>
<text text-anchor="middle" x="507.5" y="-8.2" font-family="sans-serif" font-size="14.00">dependencies</text>
<g id="clust1" class="cluster">
<title>cluster_PipesModule</title>
<polygon fill="none" stroke="black" stroke-dasharray="1,5" points="8,-32.8 8,-230.8 1007,-230.8 1007,-32.8 8,-32.8"/>
</g>
<g id="clust12" class="cluster">
<title>cluster_PipesModule_exports</title>
<polygon fill="none" stroke="black" points="16,-170.8 16,-222.8 999,-222.8 999,-170.8 16,-170.8"/>
</g>
<g id="clust2" class="cluster">
<title>cluster_PipesModule_declarations</title>
<polygon fill="none" stroke="black" points="32,-40.8 32,-92.8 988,-92.8 988,-40.8 32,-40.8"/>
</g>
<!-- ElsePipe -->
<g id="node1" class="node">
<title>ElsePipe</title>
<polygon fill="#ffffb3" stroke="black" points="980.49,-84.8 915.51,-84.8 915.51,-48.8 980.49,-48.8 980.49,-84.8"/>
<text text-anchor="middle" x="948" y="-62.6" font-family="Times,serif" font-size="14.00">ElsePipe</text>
</g>
<!-- PipesModule -->
<g id="node9" class="node">
<title>PipesModule</title>
<polygon fill="#8dd3c7" stroke="black" points="556.88,-149.8 553.88,-153.8 532.88,-153.8 529.88,-149.8 467.12,-149.8 467.12,-113.8 556.88,-113.8 556.88,-149.8"/>
<text text-anchor="middle" x="512" y="-127.6" font-family="Times,serif" font-size="14.00">PipesModule</text>
</g>
<!-- ElsePipe&#45;&gt;PipesModule -->
<g id="edge1" class="edge">
<title>ElsePipe&#45;&gt;PipesModule</title>
<path fill="none" stroke="black" d="M919.13,-85.02C919.13,-103.63 919.13,-129.8 919.13,-129.8 919.13,-129.8 567.13,-129.8 567.13,-129.8"/>
<polygon fill="black" stroke="black" points="567.13,-126.3 557.13,-129.8 567.13,-133.3 567.13,-126.3"/>
</g>
<!-- IfElsePipe -->
<g id="node2" class="node">
<title>IfElsePipe</title>
<polygon fill="#ffffb3" stroke="black" points="897.31,-84.8 822.69,-84.8 822.69,-48.8 897.31,-48.8 897.31,-84.8"/>
<text text-anchor="middle" x="860" y="-62.6" font-family="Times,serif" font-size="14.00">IfElsePipe</text>
</g>
<!-- IfElsePipe&#45;&gt;PipesModule -->
<g id="edge2" class="edge">
<title>IfElsePipe&#45;&gt;PipesModule</title>
<path fill="none" stroke="black" d="M873.8,-84.82C873.8,-102.17 873.8,-125.8 873.8,-125.8 873.8,-125.8 567.09,-125.8 567.09,-125.8"/>
<polygon fill="black" stroke="black" points="567.09,-122.3 557.09,-125.8 567.09,-129.3 567.09,-122.3"/>
</g>
<!-- MaskedPipe -->
<g id="node3" class="node">
<title>MaskedPipe</title>
<polygon fill="#ffffb3" stroke="black" points="804.71,-84.8 719.29,-84.8 719.29,-48.8 804.71,-48.8 804.71,-84.8"/>
<text text-anchor="middle" x="762" y="-62.6" font-family="Times,serif" font-size="14.00">MaskedPipe</text>
</g>
<!-- MaskedPipe&#45;&gt;PipesModule -->
<g id="edge3" class="edge">
<title>MaskedPipe&#45;&gt;PipesModule</title>
<path fill="none" stroke="black" d="M776.62,-84.81C776.62,-100.85 776.62,-121.8 776.62,-121.8 776.62,-121.8 566.89,-121.8 566.89,-121.8"/>
<polygon fill="black" stroke="black" points="566.89,-118.3 556.89,-121.8 566.89,-125.3 566.89,-118.3"/>
</g>
<!-- RelativeTimePipe -->
<g id="node4" class="node">
<title>RelativeTimePipe</title>
<polygon fill="#ffffb3" stroke="black" points="701.59,-84.8 584.41,-84.8 584.41,-48.8 701.59,-48.8 701.59,-84.8"/>
<text text-anchor="middle" x="643" y="-62.6" font-family="Times,serif" font-size="14.00">RelativeTimePipe</text>
</g>
<!-- RelativeTimePipe&#45;&gt;PipesModule -->
<g id="edge4" class="edge">
<title>RelativeTimePipe&#45;&gt;PipesModule</title>
<path fill="none" stroke="black" d="M623.49,-84.92C623.49,-99.58 623.49,-117.8 623.49,-117.8 623.49,-117.8 567.02,-117.8 567.02,-117.8"/>
<polygon fill="black" stroke="black" points="567.02,-114.3 557.02,-117.8 567.02,-121.3 567.02,-114.3"/>
</g>
<!-- SanitizerHtmlPipe -->
<g id="node5" class="node">
<title>SanitizerHtmlPipe</title>
<polygon fill="#ffffb3" stroke="black" points="566.93,-84.8 447.07,-84.8 447.07,-48.8 566.93,-48.8 566.93,-84.8"/>
<text text-anchor="middle" x="507" y="-62.6" font-family="Times,serif" font-size="14.00">SanitizerHtmlPipe</text>
</g>
<!-- SanitizerHtmlPipe&#45;&gt;PipesModule -->
<g id="edge5" class="edge">
<title>SanitizerHtmlPipe&#45;&gt;PipesModule</title>
<path fill="none" stroke="black" d="M512,-84.91C512,-84.91 512,-103.79 512,-103.79"/>
<polygon fill="black" stroke="black" points="508.5,-103.79 512,-113.79 515.5,-103.79 508.5,-103.79"/>
</g>
<!-- SanitizerScriptPipe -->
<g id="node6" class="node">
<title>SanitizerScriptPipe</title>
<polygon fill="#ffffb3" stroke="black" points="429.09,-84.8 304.91,-84.8 304.91,-48.8 429.09,-48.8 429.09,-84.8"/>
<text text-anchor="middle" x="367" y="-62.6" font-family="Times,serif" font-size="14.00">SanitizerScriptPipe</text>
</g>
<!-- SanitizerScriptPipe&#45;&gt;PipesModule -->
<g id="edge6" class="edge">
<title>SanitizerScriptPipe&#45;&gt;PipesModule</title>
<path fill="none" stroke="black" d="M383.51,-85.04C383.51,-100.37 383.51,-119.8 383.51,-119.8 383.51,-119.8 457.06,-119.8 457.06,-119.8"/>
<polygon fill="black" stroke="black" points="457.06,-123.3 467.06,-119.8 457.06,-116.3 457.06,-123.3"/>
</g>
<!-- SanitizerStylePipe -->
<g id="node7" class="node">
<title>SanitizerStylePipe</title>
<polygon fill="#ffffb3" stroke="black" points="286.93,-84.8 167.07,-84.8 167.07,-48.8 286.93,-48.8 286.93,-84.8"/>
<text text-anchor="middle" x="227" y="-62.6" font-family="Times,serif" font-size="14.00">SanitizerStylePipe</text>
</g>
<!-- SanitizerStylePipe&#45;&gt;PipesModule -->
<g id="edge7" class="edge">
<title>SanitizerStylePipe&#45;&gt;PipesModule</title>
<path fill="none" stroke="black" d="M282.09,-84.83C282.09,-101.86 282.09,-124.8 282.09,-124.8 282.09,-124.8 456.85,-124.8 456.85,-124.8"/>
<polygon fill="black" stroke="black" points="456.85,-128.3 466.85,-124.8 456.85,-121.3 456.85,-128.3"/>
</g>
<!-- SanitizerUrlPipe -->
<g id="node8" class="node">
<title>SanitizerUrlPipe</title>
<polygon fill="#ffffb3" stroke="black" points="149.8,-84.8 40.2,-84.8 40.2,-48.8 149.8,-48.8 149.8,-84.8"/>
<text text-anchor="middle" x="95" y="-62.6" font-family="Times,serif" font-size="14.00">SanitizerUrlPipe</text>
</g>
<!-- SanitizerUrlPipe&#45;&gt;PipesModule -->
<g id="edge8" class="edge">
<title>SanitizerUrlPipe&#45;&gt;PipesModule</title>
<path fill="none" stroke="black" d="M143.03,-85.02C143.03,-103.63 143.03,-129.8 143.03,-129.8 143.03,-129.8 456.76,-129.8 456.76,-129.8"/>
<polygon fill="black" stroke="black" points="456.76,-133.3 466.76,-129.8 456.76,-126.3 456.76,-133.3"/>
</g>
<!-- ElsePipe  -->
<g id="node10" class="node">
<title>ElsePipe </title>
<polygon fill="#fb8072" stroke="black" points="991.49,-214.8 922.51,-214.8 922.51,-178.8 991.49,-178.8 991.49,-214.8"/>
<text text-anchor="middle" x="957" y="-192.6" font-family="Times,serif" font-size="14.00">ElsePipe </text>
</g>
<!-- PipesModule&#45;&gt;ElsePipe  -->
<g id="edge9" class="edge">
<title>PipesModule&#45;&gt;ElsePipe </title>
<path fill="none" stroke="black" stroke-dasharray="5,2" d="M556.98,-133.8C669.03,-133.8 951.62,-133.8 951.62,-133.8 951.62,-133.8 951.62,-168.58 951.62,-168.58"/>
<polygon fill="black" stroke="black" points="948.13,-168.58 951.62,-178.58 955.13,-168.58 948.13,-168.58"/>
</g>
<!-- IfElsePipe  -->
<g id="node11" class="node">
<title>IfElsePipe </title>
<polygon fill="#fb8072" stroke="black" points="904.81,-214.8 827.19,-214.8 827.19,-178.8 904.81,-178.8 904.81,-214.8"/>
<text text-anchor="middle" x="866" y="-192.6" font-family="Times,serif" font-size="14.00">IfElsePipe </text>
</g>
<!-- PipesModule&#45;&gt;IfElsePipe  -->
<g id="edge10" class="edge">
<title>PipesModule&#45;&gt;IfElsePipe </title>
<path fill="none" stroke="black" stroke-dasharray="5,2" d="M556.94,-137.8C649.01,-137.8 850.45,-137.8 850.45,-137.8 850.45,-137.8 850.45,-168.78 850.45,-168.78"/>
<polygon fill="black" stroke="black" points="846.95,-168.78 850.45,-178.78 853.95,-168.78 846.95,-168.78"/>
</g>
<!-- MaskedPipe  -->
<g id="node12" class="node">
<title>MaskedPipe </title>
<polygon fill="#fb8072" stroke="black" points="809.21,-214.8 720.79,-214.8 720.79,-178.8 809.21,-178.8 809.21,-214.8"/>
<text text-anchor="middle" x="765" y="-192.6" font-family="Times,serif" font-size="14.00">MaskedPipe </text>
</g>
<!-- PipesModule&#45;&gt;MaskedPipe  -->
<g id="edge11" class="edge">
<title>PipesModule&#45;&gt;MaskedPipe </title>
<path fill="none" stroke="black" stroke-dasharray="5,2" d="M557.07,-141.8C625.72,-141.8 748.63,-141.8 748.63,-141.8 748.63,-141.8 748.63,-168.79 748.63,-168.79"/>
<polygon fill="black" stroke="black" points="745.13,-168.79 748.63,-178.79 752.13,-168.79 745.13,-168.79"/>
</g>
<!-- RelativeTimePipe  -->
<g id="node13" class="node">
<title>RelativeTimePipe </title>
<polygon fill="#fb8072" stroke="black" points="702.09,-214.8 581.91,-214.8 581.91,-178.8 702.09,-178.8 702.09,-214.8"/>
<text text-anchor="middle" x="642" y="-192.6" font-family="Times,serif" font-size="14.00">RelativeTimePipe </text>
</g>
<!-- PipesModule&#45;&gt;RelativeTimePipe  -->
<g id="edge12" class="edge">
<title>PipesModule&#45;&gt;RelativeTimePipe </title>
<path fill="none" stroke="black" stroke-dasharray="5,2" d="M557.16,-145.8C601.49,-145.8 662.51,-145.8 662.51,-145.8 662.51,-145.8 662.51,-168.68 662.51,-168.68"/>
<polygon fill="black" stroke="black" points="659.01,-168.68 662.51,-178.68 666.01,-168.68 659.01,-168.68"/>
</g>
<!-- SanitizerHtmlPipe  -->
<g id="node14" class="node">
<title>SanitizerHtmlPipe </title>
<polygon fill="#fb8072" stroke="black" points="563.43,-214.8 440.57,-214.8 440.57,-178.8 563.43,-178.8 563.43,-214.8"/>
<text text-anchor="middle" x="502" y="-192.6" font-family="Times,serif" font-size="14.00">SanitizerHtmlPipe </text>
</g>
<!-- PipesModule&#45;&gt;SanitizerHtmlPipe  -->
<g id="edge13" class="edge">
<title>PipesModule&#45;&gt;SanitizerHtmlPipe </title>
<path fill="none" stroke="black" stroke-dasharray="5,2" d="M512,-149.91C512,-149.91 512,-168.79 512,-168.79"/>
<polygon fill="black" stroke="black" points="508.5,-168.79 512,-178.79 515.5,-168.79 508.5,-168.79"/>
</g>
<!-- SanitizerScriptPipe  -->
<g id="node15" class="node">
<title>SanitizerScriptPipe </title>
<polygon fill="#fb8072" stroke="black" points="422.59,-214.8 295.41,-214.8 295.41,-178.8 422.59,-178.8 422.59,-214.8"/>
<text text-anchor="middle" x="359" y="-192.6" font-family="Times,serif" font-size="14.00">SanitizerScriptPipe </text>
</g>
<!-- PipesModule&#45;&gt;SanitizerScriptPipe  -->
<g id="edge14" class="edge">
<title>PipesModule&#45;&gt;SanitizerScriptPipe </title>
<path fill="none" stroke="black" stroke-dasharray="5,2" d="M467.04,-144.8C417.35,-144.8 344.24,-144.8 344.24,-144.8 344.24,-144.8 344.24,-168.61 344.24,-168.61"/>
<polygon fill="black" stroke="black" points="340.74,-168.61 344.24,-178.61 347.74,-168.61 340.74,-168.61"/>
</g>
<!-- SanitizerStylePipe  -->
<g id="node16" class="node">
<title>SanitizerStylePipe </title>
<polygon fill="#fb8072" stroke="black" points="277.43,-214.8 154.57,-214.8 154.57,-178.8 277.43,-178.8 277.43,-214.8"/>
<text text-anchor="middle" x="216" y="-192.6" font-family="Times,serif" font-size="14.00">SanitizerStylePipe </text>
</g>
<!-- PipesModule&#45;&gt;SanitizerStylePipe  -->
<g id="edge15" class="edge">
<title>PipesModule&#45;&gt;SanitizerStylePipe </title>
<path fill="none" stroke="black" stroke-dasharray="5,2" d="M467.06,-139.8C385.71,-139.8 222.38,-139.8 222.38,-139.8 222.38,-139.8 222.38,-168.76 222.38,-168.76"/>
<polygon fill="black" stroke="black" points="218.88,-168.76 222.38,-178.76 225.88,-168.76 218.88,-168.76"/>
</g>
<!-- SanitizerUrlPipe  -->
<g id="node17" class="node">
<title>SanitizerUrlPipe </title>
<polygon fill="#fb8072" stroke="black" points="136.3,-214.8 23.7,-214.8 23.7,-178.8 136.3,-178.8 136.3,-214.8"/>
<text text-anchor="middle" x="80" y="-192.6" font-family="Times,serif" font-size="14.00">SanitizerUrlPipe </text>
</g>
<!-- PipesModule&#45;&gt;SanitizerUrlPipe  -->
<g id="edge16" class="edge">
<title>PipesModule&#45;&gt;SanitizerUrlPipe </title>
<path fill="none" stroke="black" stroke-dasharray="5,2" d="M467.07,-134.8C358.04,-134.8 88.38,-134.8 88.38,-134.8 88.38,-134.8 88.38,-168.53 88.38,-168.53"/>
<polygon fill="black" stroke="black" points="84.88,-168.53 88.38,-178.53 91.88,-168.53 84.88,-168.53"/>
</g>
</g>
</svg>
