<?xml version="1.0" encoding="UTF-8" standalone="no"?>
<!DOCTYPE svg PUBLIC "-//W3C//DTD SVG 1.1//EN"
 "http://www.w3.org/Graphics/SVG/1.1/DTD/svg11.dtd">
<!-- Generated by graphviz version 2.47.3 (20210619.1520)
 -->
<!-- Title: dependencies Pages: 1 -->
<svg width="644pt" height="174pt"
 viewBox="0.00 0.00 644.00 173.80" xmlns="http://www.w3.org/2000/svg" xmlns:xlink="http://www.w3.org/1999/xlink">
<g id="graph0" class="graph" transform="scale(1 1) rotate(0) translate(4 169.8)">
<title>dependencies</title>
<polygon fill="white" stroke="transparent" points="-4,4 -4,-169.8 640,-169.8 640,4 -4,4"/>
<text text-anchor="middle" x="318" y="-8.2" font-family="sans-serif" font-size="14.00">dependencies</text>
<g id="clust1" class="cluster">
<title>cluster_TemplatesModule</title>
<polygon fill="none" stroke="black" stroke-dasharray="1,5" points="8,-32.8 8,-157.8 628,-157.8 628,-32.8 8,-32.8"/>
</g>
<g id="clust7" class="cluster">
<title>cluster_TemplatesModule_providers</title>
<polygon fill="none" stroke="black" points="140,-40.8 140,-92.8 620,-92.8 620,-40.8 140,-40.8"/>
</g>
<g id="clust2" class="cluster">
<title>cluster_TemplatesModule_declarations</title>
<polygon fill="none" stroke="black" points="16,-40.8 16,-92.8 132,-92.8 132,-40.8 16,-40.8"/>
</g>
<!-- FormTemplate -->
<g id="node1" class="node">
<title>FormTemplate</title>
<polygon fill="#ffffb3" stroke="black" points="123.7,-84.8 24.3,-84.8 24.3,-48.8 123.7,-48.8 123.7,-84.8"/>
<text text-anchor="middle" x="74" y="-62.6" font-family="Times,serif" font-size="14.00">FormTemplate</text>
</g>
<!-- TemplatesModule -->
<g id="node2" class="node">
<title>TemplatesModule</title>
<polygon fill="#8dd3c7" stroke="black" points="314.86,-149.8 311.86,-153.8 290.86,-153.8 287.86,-149.8 197.14,-149.8 197.14,-113.8 314.86,-113.8 314.86,-149.8"/>
<text text-anchor="middle" x="256" y="-127.6" font-family="Times,serif" font-size="14.00">TemplatesModule</text>
</g>
<!-- FormTemplate&#45;&gt;TemplatesModule -->
<g id="edge1" class="edge">
<title>FormTemplate&#45;&gt;TemplatesModule</title>
<path fill="none" stroke="black" d="M74,-84.91C74,-104.14 74,-131.8 74,-131.8 74,-131.8 186.91,-131.8 186.91,-131.8"/>
<polygon fill="black" stroke="black" points="186.91,-135.3 196.91,-131.8 186.91,-128.3 186.91,-135.3"/>
</g>
<!-- NavigatorTemplateService -->
<g id="node3" class="node">
<title>NavigatorTemplateService</title>
<ellipse fill="#fdb462" stroke="black" cx="497" cy="-66.8" rx="115.14" ry="18"/>
<text text-anchor="middle" x="497" y="-62.6" font-family="Times,serif" font-size="14.00">NavigatorTemplateService</text>
</g>
<!-- NavigatorTemplateService&#45;&gt;TemplatesModule -->
<g id="edge2" class="edge">
<title>NavigatorTemplateService&#45;&gt;TemplatesModule</title>
<path fill="none" stroke="black" d="M497,-84.91C497,-104.14 497,-131.8 497,-131.8 497,-131.8 324.96,-131.8 324.96,-131.8"/>
<polygon fill="black" stroke="black" points="324.96,-128.3 314.96,-131.8 324.96,-135.3 324.96,-128.3"/>
</g>
<!-- RequestTemplateService -->
<g id="node4" class="node">
<title>RequestTemplateService</title>
<ellipse fill="#fdb462" stroke="black" cx="256" cy="-66.8" rx="107.64" ry="18"/>
<text text-anchor="middle" x="256" y="-62.6" font-family="Times,serif" font-size="14.00">RequestTemplateService</text>
</g>
<!-- RequestTemplateService&#45;&gt;TemplatesModule -->
<g id="edge3" class="edge">
<title>RequestTemplateService&#45;&gt;TemplatesModule</title>
<path fill="none" stroke="black" d="M256,-84.91C256,-84.91 256,-103.79 256,-103.79"/>
<polygon fill="black" stroke="black" points="252.5,-103.79 256,-113.79 259.5,-103.79 252.5,-103.79"/>
</g>
</g>
</svg>
