<?xml version="1.0" encoding="UTF-8" standalone="no"?>
<!DOCTYPE svg PUBLIC "-//W3C//DTD SVG 1.1//EN"
 "http://www.w3.org/Graphics/SVG/1.1/DTD/svg11.dtd">
<!-- Generated by graphviz version 2.47.3 (20210619.1520)
 -->
<!-- Title: dependencies Pages: 1 -->
<svg width="644pt" height="174pt"
 viewBox="0.00 0.00 644.00 173.80" xmlns="http://www.w3.org/2000/svg" xmlns:xlink="http://www.w3.org/1999/xlink">
<g id="graph0" class="graph" transform="scale(1 1) rotate(0) translate(4 169.8)">
<title>dependencies</title>
<polygon fill="white" stroke="transparent" points="-4,4 -4,-169.8 640,-169.8 640,4 -4,4"/>
<text text-anchor="middle" x="318" y="-8.2" font-family="sans-serif" font-size="14.00">dependencies</text>
<g id="clust1" class="cluster">
<title>cluster_TemplatesModule</title>
<polygon fill="none" stroke="black" stroke-dasharray="1,5" points="8,-32.8 8,-157.8 628,-157.8 628,-32.8 8,-32.8"/>
</g>
<g id="clust2" class="cluster">
<title>cluster_TemplatesModule_declarations</title>
<polygon fill="none" stroke="black" points="504,-40.8 504,-92.8 620,-92.8 620,-40.8 504,-40.8"/>
</g>
<g id="clust7" class="cluster">
<title>cluster_TemplatesModule_providers</title>
<polygon fill="none" stroke="black" points="16,-40.8 16,-92.8 496,-92.8 496,-40.8 16,-40.8"/>
</g>
<!-- FormTemplate -->
<g id="node1" class="node">
<title>FormTemplate</title>
<polygon fill="#ffffb3" stroke="black" points="611.7,-84.8 512.3,-84.8 512.3,-48.8 611.7,-48.8 611.7,-84.8"/>
<text text-anchor="middle" x="562" y="-62.6" font-family="Times,serif" font-size="14.00">FormTemplate</text>
</g>
<!-- TemplatesModule -->
<g id="node2" class="node">
<title>TemplatesModule</title>
<polygon fill="#8dd3c7" stroke="black" points="431.86,-149.8 428.86,-153.8 407.86,-153.8 404.86,-149.8 314.14,-149.8 314.14,-113.8 431.86,-113.8 431.86,-149.8"/>
<text text-anchor="middle" x="373" y="-127.6" font-family="Times,serif" font-size="14.00">TemplatesModule</text>
</g>
<!-- FormTemplate&#45;&gt;TemplatesModule -->
<g id="edge1" class="edge">
<title>FormTemplate&#45;&gt;TemplatesModule</title>
<path fill="none" stroke="black" d="M562,-84.91C562,-104.14 562,-131.8 562,-131.8 562,-131.8 442.02,-131.8 442.02,-131.8"/>
<polygon fill="black" stroke="black" points="442.02,-128.3 432.02,-131.8 442.02,-135.3 442.02,-128.3"/>
</g>
<!-- NavigatorTemplateService -->
<g id="node3" class="node">
<title>NavigatorTemplateService</title>
<ellipse fill="#fdb462" stroke="black" cx="373" cy="-66.8" rx="115.14" ry="18"/>
<text text-anchor="middle" x="373" y="-62.6" font-family="Times,serif" font-size="14.00">NavigatorTemplateService</text>
</g>
<!-- NavigatorTemplateService&#45;&gt;TemplatesModule -->
<g id="edge2" class="edge">
<title>NavigatorTemplateService&#45;&gt;TemplatesModule</title>
<path fill="none" stroke="black" d="M373,-84.91C373,-84.91 373,-103.79 373,-103.79"/>
<polygon fill="black" stroke="black" points="369.5,-103.79 373,-113.79 376.5,-103.79 369.5,-103.79"/>
</g>
<!-- RequestTemplateService -->
<g id="node4" class="node">
<title>RequestTemplateService</title>
<ellipse fill="#fdb462" stroke="black" cx="132" cy="-66.8" rx="107.64" ry="18"/>
<text text-anchor="middle" x="132" y="-62.6" font-family="Times,serif" font-size="14.00">RequestTemplateService</text>
</g>
<!-- RequestTemplateService&#45;&gt;TemplatesModule -->
<g id="edge3" class="edge">
<title>RequestTemplateService&#45;&gt;TemplatesModule</title>
<path fill="none" stroke="black" d="M132,-84.91C132,-104.14 132,-131.8 132,-131.8 132,-131.8 304.04,-131.8 304.04,-131.8"/>
<polygon fill="black" stroke="black" points="304.04,-135.3 314.04,-131.8 304.04,-128.3 304.04,-135.3"/>
</g>
</g>
</svg>
