<?xml version="1.0" encoding="UTF-8" standalone="no"?>
<!DOCTYPE svg PUBLIC "-//W3C//DTD SVG 1.1//EN"
 "http://www.w3.org/Graphics/SVG/1.1/DTD/svg11.dtd">
<!-- Generated by graphviz version 2.47.3 (20210619.1520)
 -->
<!-- Title: dependencies Pages: 1 -->
<svg width="232pt" height="174pt"
 viewBox="0.00 0.00 232.00 173.80" xmlns="http://www.w3.org/2000/svg" xmlns:xlink="http://www.w3.org/1999/xlink">
<g id="graph0" class="graph" transform="scale(1 1) rotate(0) translate(4 169.8)">
<title>dependencies</title>
<polygon fill="white" stroke="transparent" points="-4,4 -4,-169.8 228,-169.8 228,4 -4,4"/>
<text text-anchor="middle" x="112" y="-8.2" font-family="sans-serif" font-size="14.00">dependencies</text>
<g id="clust1" class="cluster">
<title>cluster_NgTranslateModule</title>
<polygon fill="none" stroke="black" stroke-dasharray="1,5" points="8,-32.8 8,-157.8 216,-157.8 216,-32.8 8,-32.8"/>
</g>
<g id="clust6" class="cluster">
<title>cluster_NgTranslateModule_providers</title>
<polygon fill="none" stroke="black" points="16,-40.8 16,-92.8 208,-92.8 208,-40.8 16,-40.8"/>
</g>
<!-- NgTranslateService -->
<g id="node1" class="node">
<title>NgTranslateService</title>
<ellipse fill="#fdb462" stroke="black" cx="112" cy="-66.8" rx="87.94" ry="18"/>
<text text-anchor="middle" x="112" y="-62.6" font-family="Times,serif" font-size="14.00">NgTranslateService</text>
</g>
<!-- NgTranslateModule -->
<g id="node2" class="node">
<title>NgTranslateModule</title>
<polygon fill="#8dd3c7" stroke="black" points="176.24,-149.8 173.24,-153.8 152.24,-153.8 149.24,-149.8 47.76,-149.8 47.76,-113.8 176.24,-113.8 176.24,-149.8"/>
<text text-anchor="middle" x="112" y="-127.6" font-family="Times,serif" font-size="14.00">NgTranslateModule</text>
</g>
<!-- NgTranslateService&#45;&gt;NgTranslateModule -->
<g id="edge1" class="edge">
<title>NgTranslateService&#45;&gt;NgTranslateModule</title>
<path fill="none" stroke="black" d="M112,-84.91C112,-84.91 112,-103.79 112,-103.79"/>
<polygon fill="black" stroke="black" points="108.5,-103.79 112,-113.79 115.5,-103.79 108.5,-103.79"/>
</g>
</g>
</svg>
