<?xml version="1.0" encoding="UTF-8" standalone="no"?>
<!DOCTYPE svg PUBLIC "-//W3C//DTD SVG 1.1//EN"
 "http://www.w3.org/Graphics/SVG/1.1/DTD/svg11.dtd">
<!-- Generated by graphviz version 2.47.3 (20210619.1520)
 -->
<!-- Title: dependencies Pages: 1 -->
<svg width="734pt" height="358pt"
 viewBox="0.00 0.00 734.00 358.39" xmlns="http://www.w3.org/2000/svg" xmlns:xlink="http://www.w3.org/1999/xlink">
<g id="graph0" class="graph" transform="scale(1 1) rotate(0) translate(4 354.39)">
<title>dependencies</title>
<polygon fill="white" stroke="transparent" points="-4,4 -4,-354.39 730,-354.39 730,4 -4,4"/>
<text text-anchor="middle" x="363" y="-8.2" font-family="sans-serif" font-size="14.00">dependencies</text>
<g id="clust1" class="cluster">
<title>cluster_MaskedDirectivesModule</title>
<polygon fill="none" stroke="black" stroke-dasharray="1,5" points="8,-32.8 8,-342.39 718,-342.39 718,-32.8 8,-32.8"/>
</g>
<g id="clust2" class="cluster">
<title>cluster_MaskedDirectivesModule_declarations</title>
<polygon fill="none" stroke="black" points="299,-152.39 299,-204.39 427,-204.39 427,-152.39 299,-152.39"/>
</g>
<g id="clust5" class="cluster">
<title>cluster_MaskedDirectivesModule_exports</title>
<polygon fill="none" stroke="black" points="297,-282.39 297,-334.39 429,-334.39 429,-282.39 297,-282.39"/>
</g>
<g id="clust3" class="cluster">
<title>cluster_MaskedDirectivesModule_MaskedDirective_providers</title>
<polygon fill="none" stroke="black" points="16,-40.8 16,-139.39 710,-139.39 710,-40.8 16,-40.8"/>
</g>
<!-- MaskedDirective -->
<g id="node1" class="node">
<title>MaskedDirective</title>
<polygon fill="#ffffb3" stroke="black" points="419.4,-196.39 306.6,-196.39 306.6,-160.39 419.4,-160.39 419.4,-196.39"/>
<text text-anchor="middle" x="363" y="-174.19" font-family="Times,serif" font-size="14.00">MaskedDirective</text>
</g>
<!-- MaskedDirectivesModule -->
<g id="node2" class="node">
<title>MaskedDirectivesModule</title>
<polygon fill="#8dd3c7" stroke="black" points="443.9,-261.39 440.9,-265.39 419.9,-265.39 416.9,-261.39 282.1,-261.39 282.1,-225.39 443.9,-225.39 443.9,-261.39"/>
<text text-anchor="middle" x="363" y="-239.19" font-family="Times,serif" font-size="14.00">MaskedDirectivesModule</text>
</g>
<!-- MaskedDirective&#45;&gt;MaskedDirectivesModule -->
<g id="edge1" class="edge">
<title>MaskedDirective&#45;&gt;MaskedDirectivesModule</title>
<path fill="none" stroke="black" d="M363,-196.5C363,-196.5 363,-215.38 363,-215.38"/>
<polygon fill="black" stroke="black" points="359.5,-215.38 363,-225.38 366.5,-215.38 359.5,-215.38"/>
</g>
<!-- MaskedDirective  -->
<g id="node4" class="node">
<title>MaskedDirective </title>
<polygon fill="#fb8072" stroke="black" points="420.9,-326.39 305.1,-326.39 305.1,-290.39 420.9,-290.39 420.9,-326.39"/>
<text text-anchor="middle" x="363" y="-304.19" font-family="Times,serif" font-size="14.00">MaskedDirective </text>
</g>
<!-- MaskedDirectivesModule&#45;&gt;MaskedDirective  -->
<g id="edge3" class="edge">
<title>MaskedDirectivesModule&#45;&gt;MaskedDirective </title>
<path fill="none" stroke="black" stroke-dasharray="5,2" d="M363,-261.5C363,-261.5 363,-280.38 363,-280.38"/>
<polygon fill="black" stroke="black" points="359.5,-280.38 363,-290.38 366.5,-280.38 359.5,-280.38"/>
</g>
<!-- {
 &#160;&#160;&#160;provide: NG_VALUE_ACCESSOR, useExisting: MaskedDirective, multi: true,
} -->
<g id="node3" class="node">
<title>{
 &#160;&#160;&#160;provide: NG_VALUE_ACCESSOR, useExisting: MaskedDirective, multi: true,
}</title>
<ellipse fill="#fdb462" stroke="black" cx="363" cy="-90.1" rx="339.08" ry="41.09"/>
<text text-anchor="middle" x="363" y="-102.7" font-family="Times,serif" font-size="14.00">{</text>
<text text-anchor="middle" x="363" y="-85.9" font-family="Times,serif" font-size="14.00"> &#160;&#160;&#160;provide: NG_VALUE_ACCESSOR, useExisting: MaskedDirective, multi: true,</text>
<text text-anchor="middle" x="363" y="-69.1" font-family="Times,serif" font-size="14.00">}</text>
</g>
<!-- {
 &#160;&#160;&#160;provide: NG_VALUE_ACCESSOR, useExisting: MaskedDirective, multi: true,
}&#45;&gt;MaskedDirective -->
<g id="edge2" class="edge">
<title>{
 &#160;&#160;&#160;provide: NG_VALUE_ACCESSOR, useExisting: MaskedDirective, multi: true,
}&#45;&gt;MaskedDirective</title>
<path fill="none" stroke="black" d="M363,-131.4C363,-131.4 363,-150.06 363,-150.06"/>
<polygon fill="black" stroke="black" points="359.5,-150.06 363,-160.06 366.5,-150.06 359.5,-150.06"/>
</g>
</g>
</svg>
