<?xml version="1.0" encoding="UTF-8" standalone="no"?>
<!DOCTYPE svg PUBLIC "-//W3C//DTD SVG 1.1//EN"
 "http://www.w3.org/Graphics/SVG/1.1/DTD/svg11.dtd">
<!-- Generated by graphviz version 2.47.3 (20210619.1520)
 -->
<!-- Title: dependencies Pages: 1 -->
<svg width="856pt" height="358pt"
 viewBox="0.00 0.00 856.00 358.39" xmlns="http://www.w3.org/2000/svg" xmlns:xlink="http://www.w3.org/1999/xlink">
<g id="graph0" class="graph" transform="scale(1 1) rotate(0) translate(4 354.39)">
<title>dependencies</title>
<polygon fill="white" stroke="transparent" points="-4,4 -4,-354.39 852,-354.39 852,4 -4,4"/>
<text text-anchor="middle" x="424" y="-8.2" font-family="sans-serif" font-size="14.00">dependencies</text>
<g id="clust1" class="cluster">
<title>cluster_ContenteditableModule</title>
<polygon fill="none" stroke="black" stroke-dasharray="1,5" points="8,-32.8 8,-342.39 840,-342.39 840,-32.8 8,-32.8"/>
</g>
<g id="clust3" class="cluster">
<title>cluster_ContenteditableModule_ContenteditableControlAccessor_providers</title>
<polygon fill="none" stroke="black" points="16,-40.8 16,-204.39 832,-204.39 832,-40.8 16,-40.8"/>
</g>
<g id="clust5" class="cluster">
<title>cluster_ContenteditableModule_exports</title>
<polygon fill="none" stroke="black" points="315,-282.39 315,-334.39 533,-334.39 533,-282.39 315,-282.39"/>
</g>
<!-- ContenteditableControlAccessor -->
<g id="node1" class="node">
<title>ContenteditableControlAccessor</title>
<polygon fill="#ffffb3" stroke="black" points="523.23,-196.39 324.77,-196.39 324.77,-160.39 523.23,-160.39 523.23,-196.39"/>
<text text-anchor="middle" x="424" y="-174.19" font-family="Times,serif" font-size="14.00">ContenteditableControlAccessor</text>
</g>
<!-- ContenteditableModule -->
<g id="node2" class="node">
<title>ContenteditableModule</title>
<polygon fill="#8dd3c7" stroke="black" points="498.2,-261.39 495.2,-265.39 474.2,-265.39 471.2,-261.39 349.8,-261.39 349.8,-225.39 498.2,-225.39 498.2,-261.39"/>
<text text-anchor="middle" x="424" y="-239.19" font-family="Times,serif" font-size="14.00">ContenteditableModule</text>
</g>
<!-- ContenteditableControlAccessor&#45;&gt;ContenteditableModule -->
<g id="edge1" class="edge">
<title>ContenteditableControlAccessor&#45;&gt;ContenteditableModule</title>
<path fill="none" stroke="black" d="M424,-196.5C424,-196.5 424,-215.38 424,-215.38"/>
<polygon fill="black" stroke="black" points="420.5,-215.38 424,-225.38 427.5,-215.38 420.5,-215.38"/>
</g>
<!-- ContenteditableControlAccessor  -->
<g id="node4" class="node">
<title>ContenteditableControlAccessor </title>
<polygon fill="#fb8072" stroke="black" points="525.23,-326.39 322.77,-326.39 322.77,-290.39 525.23,-290.39 525.23,-326.39"/>
<text text-anchor="middle" x="424" y="-304.19" font-family="Times,serif" font-size="14.00">ContenteditableControlAccessor </text>
</g>
<!-- ContenteditableModule&#45;&gt;ContenteditableControlAccessor  -->
<g id="edge3" class="edge">
<title>ContenteditableModule&#45;&gt;ContenteditableControlAccessor </title>
<path fill="none" stroke="black" stroke-dasharray="5,2" d="M424,-261.5C424,-261.5 424,-280.38 424,-280.38"/>
<polygon fill="black" stroke="black" points="420.5,-280.38 424,-290.38 427.5,-280.38 420.5,-280.38"/>
</g>
<!-- {
 &#160;&#160;&#160;provide: NG_VALUE_ACCESSOR, useExisting: ContenteditableControlAccessor, multi: true,
} -->
<g id="node3" class="node">
<title>{
 &#160;&#160;&#160;provide: NG_VALUE_ACCESSOR, useExisting: ContenteditableControlAccessor, multi: true,
}</title>
<ellipse fill="#fdb462" stroke="black" cx="424" cy="-90.1" rx="400.16" ry="41.09"/>
<text text-anchor="middle" x="424" y="-102.7" font-family="Times,serif" font-size="14.00">{</text>
<text text-anchor="middle" x="424" y="-85.9" font-family="Times,serif" font-size="14.00"> &#160;&#160;&#160;provide: NG_VALUE_ACCESSOR, useExisting: ContenteditableControlAccessor, multi: true,</text>
<text text-anchor="middle" x="424" y="-69.1" font-family="Times,serif" font-size="14.00">}</text>
</g>
<!-- {
 &#160;&#160;&#160;provide: NG_VALUE_ACCESSOR, useExisting: ContenteditableControlAccessor, multi: true,
}&#45;&gt;ContenteditableControlAccessor -->
<g id="edge2" class="edge">
<title>{
 &#160;&#160;&#160;provide: NG_VALUE_ACCESSOR, useExisting: ContenteditableControlAccessor, multi: true,
}&#45;&gt;ContenteditableControlAccessor</title>
<path fill="none" stroke="black" d="M424,-131.4C424,-131.4 424,-150.06 424,-150.06"/>
<polygon fill="black" stroke="black" points="420.5,-150.06 424,-160.06 427.5,-150.06 420.5,-150.06"/>
</g>
</g>
</svg>
