<?xml version="1.0" encoding="UTF-8" standalone="no"?>
<!DOCTYPE svg PUBLIC "-//W3C//DTD SVG 1.1//EN"
 "http://www.w3.org/Graphics/SVG/1.1/DTD/svg11.dtd">
<!-- Generated by graphviz version 2.47.3 (20210619.1520)
 -->
<!-- Title: dependencies Pages: 1 -->
<svg width="762pt" height="358pt"
 viewBox="0.00 0.00 762.00 358.39" xmlns="http://www.w3.org/2000/svg" xmlns:xlink="http://www.w3.org/1999/xlink">
<g id="graph0" class="graph" transform="scale(1 1) rotate(0) translate(4 354.39)">
<title>dependencies</title>
<polygon fill="white" stroke="transparent" points="-4,4 -4,-354.39 758,-354.39 758,4 -4,4"/>
<text text-anchor="middle" x="377" y="-8.2" font-family="sans-serif" font-size="14.00">dependencies</text>
<g id="clust1" class="cluster">
<title>cluster_FileControlDirectivesModule</title>
<polygon fill="none" stroke="black" stroke-dasharray="1,5" points="8,-32.8 8,-342.39 746,-342.39 746,-32.8 8,-32.8"/>
</g>
<g id="clust3" class="cluster">
<title>cluster_FileControlDirectivesModule_FileControlAccessor_providers</title>
<polygon fill="none" stroke="black" points="16,-40.8 16,-204.39 738,-204.39 738,-40.8 16,-40.8"/>
</g>
<g id="clust5" class="cluster">
<title>cluster_FileControlDirectivesModule_exports</title>
<polygon fill="none" stroke="black" points="301,-282.39 301,-334.39 453,-334.39 453,-282.39 301,-282.39"/>
</g>
<!-- FileControlAccessor -->
<g id="node1" class="node">
<title>FileControlAccessor</title>
<polygon fill="#ffffb3" stroke="black" points="442.86,-196.39 311.14,-196.39 311.14,-160.39 442.86,-160.39 442.86,-196.39"/>
<text text-anchor="middle" x="377" y="-174.19" font-family="Times,serif" font-size="14.00">FileControlAccessor</text>
</g>
<!-- FileControlDirectivesModule -->
<g id="node2" class="node">
<title>FileControlDirectivesModule</title>
<polygon fill="#8dd3c7" stroke="black" points="467.63,-261.39 464.63,-265.39 443.63,-265.39 440.63,-261.39 286.37,-261.39 286.37,-225.39 467.63,-225.39 467.63,-261.39"/>
<text text-anchor="middle" x="377" y="-239.19" font-family="Times,serif" font-size="14.00">FileControlDirectivesModule</text>
</g>
<!-- FileControlAccessor&#45;&gt;FileControlDirectivesModule -->
<g id="edge1" class="edge">
<title>FileControlAccessor&#45;&gt;FileControlDirectivesModule</title>
<path fill="none" stroke="black" d="M377,-196.5C377,-196.5 377,-215.38 377,-215.38"/>
<polygon fill="black" stroke="black" points="373.5,-215.38 377,-225.38 380.5,-215.38 373.5,-215.38"/>
</g>
<!-- FileControlAccessor  -->
<g id="node4" class="node">
<title>FileControlAccessor </title>
<polygon fill="#fb8072" stroke="black" points="444.86,-326.39 309.14,-326.39 309.14,-290.39 444.86,-290.39 444.86,-326.39"/>
<text text-anchor="middle" x="377" y="-304.19" font-family="Times,serif" font-size="14.00">FileControlAccessor </text>
</g>
<!-- FileControlDirectivesModule&#45;&gt;FileControlAccessor  -->
<g id="edge3" class="edge">
<title>FileControlDirectivesModule&#45;&gt;FileControlAccessor </title>
<path fill="none" stroke="black" stroke-dasharray="5,2" d="M377,-261.5C377,-261.5 377,-280.38 377,-280.38"/>
<polygon fill="black" stroke="black" points="373.5,-280.38 377,-290.38 380.5,-280.38 373.5,-280.38"/>
</g>
<!-- {
 &#160;&#160;&#160;provide: NG_VALUE_ACCESSOR, useExisting: FileControlAccessor, multi: true,
} -->
<g id="node3" class="node">
<title>{
 &#160;&#160;&#160;provide: NG_VALUE_ACCESSOR, useExisting: FileControlAccessor, multi: true,
}</title>
<ellipse fill="#fdb462" stroke="black" cx="377" cy="-90.1" rx="352.59" ry="41.09"/>
<text text-anchor="middle" x="377" y="-102.7" font-family="Times,serif" font-size="14.00">{</text>
<text text-anchor="middle" x="377" y="-85.9" font-family="Times,serif" font-size="14.00"> &#160;&#160;&#160;provide: NG_VALUE_ACCESSOR, useExisting: FileControlAccessor, multi: true,</text>
<text text-anchor="middle" x="377" y="-69.1" font-family="Times,serif" font-size="14.00">}</text>
</g>
<!-- {
 &#160;&#160;&#160;provide: NG_VALUE_ACCESSOR, useExisting: FileControlAccessor, multi: true,
}&#45;&gt;FileControlAccessor -->
<g id="edge2" class="edge">
<title>{
 &#160;&#160;&#160;provide: NG_VALUE_ACCESSOR, useExisting: FileControlAccessor, multi: true,
}&#45;&gt;FileControlAccessor</title>
<path fill="none" stroke="black" d="M377,-131.4C377,-131.4 377,-150.06 377,-150.06"/>
<polygon fill="black" stroke="black" points="373.5,-150.06 377,-160.06 380.5,-150.06 373.5,-150.06"/>
</g>
</g>
</svg>
